<?xml version="1.0" standalone="no"?>
<!DOCTYPE svg PUBLIC "-//W3C//DTD SVG 20010904//EN"
 "http://www.w3.org/TR/2001/REC-SVG-20010904/DTD/svg10.dtd">
<svg version="1.0" xmlns="http://www.w3.org/2000/svg"
 width="500.000000pt" height="500.000000pt" viewBox="0 0 500.000000 500.000000"
 preserveAspectRatio="xMidYMid meet">

<g transform="translate(0.000000,500.000000) scale(0.100000,-0.100000)"
fill="#000000" stroke="none">
<path d="M2568 4303 c7 -3 16 -2 19 1 4 3 -2 6 -13 5 -11 0 -14 -3 -6 -6z"/>
<path d="M2670 4274 c19 -9 45 -21 57 -27 12 -5 20 -13 18 -17 -3 -5 6 -11 19
-14 28 -7 39 -30 27 -54 -19 -39 -28 -81 -20 -93 8 -12 10 -12 18 0 5 7 11 9
14 5 5 -10 -9 -54 -18 -54 -4 0 -4 4 -1 8 3 5 -8 8 -24 7 -37 -2 -55 9 -47 29
3 8 2 18 -4 21 -5 4 -8 1 -7 -7 2 -7 -4 -12 -12 -10 -8 1 0 -11 18 -28 18 -16
30 -30 27 -30 -3 0 5 -19 17 -42 18 -34 23 -59 23 -125 0 -46 4 -79 9 -75 5 3
6 0 2 -7 -5 -7 -10 -10 -13 -7 -3 3 -14 -11 -24 -31 -15 -29 -16 -40 -7 -52
10 -13 10 -14 -1 -4 -11 10 -23 4 -59 -27 -25 -22 -49 -40 -54 -40 -5 0 -7 -4
-4 -8 6 -10 -12 -13 -122 -16 -51 -2 -95 -6 -98 -9 -3 -3 1 -4 8 -4 7 1 41 -2
76 -7 52 -7 61 -10 51 -22 -6 -8 -16 -14 -21 -14 -15 0 -38 -27 -38 -44 0 -8
-8 -17 -18 -20 -34 -11 -82 -62 -82 -87 0 -14 -7 -34 -15 -47 -12 -16 -12 -21
-3 -19 7 2 10 2 5 0 -4 -3 -5 -9 -1 -14 12 -19 -7 -7 -36 23 -21 21 -27 35
-20 42 5 5 10 15 10 21 0 5 -5 2 -11 -7 -5 -10 -15 -18 -21 -18 -6 0 -5 7 3
18 13 15 12 16 -3 3 -17 -12 -16 -16 14 -55 97 -124 173 -205 195 -206 6 0 15
-9 18 -20 3 -11 11 -20 16 -20 5 0 9 -7 9 -15 0 -8 5 -15 11 -15 5 0 8 -4 5
-9 -3 -5 1 -12 10 -15 26 -10 318 -6 334 4 8 5 11 10 5 11 -5 0 -1 4 10 9 17
7 14 9 -15 11 l-35 2 35 7 c33 7 33 7 6 9 -21 1 -27 5 -22 17 3 8 2 12 -4 9
-6 -3 -11 6 -12 22 -2 45 2 68 13 71 6 3 5 9 -2 19 -10 12 -10 16 2 23 9 6
-33 10 -112 12 l-126 3 79 105 c43 58 82 112 86 120 4 8 31 55 60 104 30 49
62 112 73 139 41 103 34 226 -17 332 -45 91 -164 210 -229 227 -11 3 -29 9
-40 12 -11 4 -4 -1 15 -10z m157 -139 c0 -8 -4 -12 -9 -9 -5 3 -6 10 -3 15 9
13 12 11 12 -6z m-30 -27 c-3 -7 -5 -2 -5 12 0 14 2 19 5 13 2 -7 2 -19 0 -25z
m-29 -106 c2 -12 -1 -22 -7 -22 -6 0 -7 7 -4 17 4 10 2 14 -4 10 -5 -3 -10 1
-10 9 0 22 22 10 25 -14z m-68 -392 c0 -5 -5 -9 -12 -7 -7 1 -12 -3 -13 -10 0
-7 -7 -18 -15 -25 -12 -11 -12 -11 -1 5 7 9 10 17 6 17 -4 0 -2 7 5 15 14 17
30 20 30 5z m173 -577 c-7 -2 -21 -2 -30 0 -10 3 -4 5 12 5 17 0 24 -2 18 -5z"/>
<path d="M2448 4123 c6 -2 18 -2 25 0 6 3 1 5 -13 5 -14 0 -19 -2 -12 -5z"/>
<path d="M2528 4123 c6 -2 18 -2 25 0 6 3 1 5 -13 5 -14 0 -19 -2 -12 -5z"/>
<path d="M2396 4111 c-4 -5 3 -7 14 -4 23 6 26 13 6 13 -8 0 -17 -4 -20 -9z"/>
<path d="M2580 4113 c8 -3 27 -12 43 -20 15 -7 27 -11 27 -9 0 8 -58 36 -72
35 -9 0 -8 -2 2 -6z"/>
<path d="M2355 4090 c-3 -6 1 -7 9 -4 18 7 21 14 7 14 -6 0 -13 -4 -16 -10z"/>
<path d="M2530 3980 c8 -5 20 -10 25 -10 6 0 3 5 -5 10 -8 5 -19 10 -25 10 -5
0 -3 -5 5 -10z"/>
<path d="M2596 3937 c15 -21 24 -40 20 -44 -3 -3 -1 -12 5 -19 10 -12 8 -33
-6 -74 -8 -23 -24 -53 -24 -46 -1 4 -10 -2 -20 -15 -16 -20 -28 -24 -74 -24
-30 0 -50 -3 -44 -7 39 -25 128 6 157 54 25 41 36 96 22 110 -6 6 -8 16 -6 22
2 6 -10 27 -27 46 l-30 35 27 -38z"/>
<path d="M2031 3884 c0 -11 3 -14 6 -6 3 7 2 16 -1 19 -3 4 -6 -2 -5 -13z"/>
<path d="M2032 3825 c0 -16 2 -22 5 -12 2 9 2 23 0 30 -3 6 -5 -1 -5 -18z"/>
<path d="M2211 3804 c0 -11 3 -14 6 -6 3 7 2 16 -1 19 -3 4 -6 -2 -5 -13z"/>
<path d="M2380 3770 c6 -11 13 -20 16 -20 2 0 0 9 -6 20 -6 11 -13 20 -16 20
-2 0 0 -9 6 -20z"/>
<path d="M2270 3666 c0 -2 8 -10 18 -17 15 -13 16 -12 3 4 -13 16 -21 21 -21
13z"/>
<path d="M2364 3596 c11 -9 24 -16 30 -16 12 0 7 5 -24 19 -24 11 -24 11 -6
-3z"/>
<path d="M2190 3473 c0 -6 8 -17 18 -24 16 -13 16 -13 2 6 -8 11 -16 22 -17
24 -2 2 -3 0 -3 -6z"/>
<path d="M2241 3401 c19 -26 39 -33 39 -15 0 3 -4 2 -10 -1 -5 -3 -10 0 -10 7
0 7 -9 19 -21 26 -20 12 -19 12 2 -17z"/>
<path d="M3395 3220 c11 -4 30 -10 42 -15 12 -4 20 -12 19 -18 -2 -7 -1 -9 1
-4 3 4 9 7 15 7 7 0 6 -5 -2 -14 -12 -15 -44 -11 -35 4 3 5 -4 6 -15 3 -12 -3
-19 -8 -16 -10 3 -3 -2 -12 -10 -20 -8 -8 -11 -19 -8 -25 4 -7 2 -8 -5 -4 -12
8 -81 -30 -81 -45 0 -5 -33 -10 -72 -11 -67 -1 -69 -2 -28 -8 44 -7 43 -7 -20
-9 -46 -1 -61 -4 -50 -11 10 -7 -18 -10 -89 -10 -57 0 -101 -3 -98 -7 4 -3
149 -8 322 -11 260 -3 315 -2 315 9 0 27 -58 134 -86 161 -31 28 -74 49 -102
47 -14 -1 -13 -2 3 -9z"/>
<path d="M3629 2985 c-14 -13 -78 -21 -209 -26 -64 -2 -64 -2 -20 -9 l45 -7
-53 -1 c-33 -1 -51 -6 -47 -12 3 -5 1 -10 -5 -10 -6 0 -18 -7 -26 -15 -9 -8
-30 -15 -48 -15 -36 0 -57 -16 -49 -36 3 -8 0 -14 -6 -14 -6 0 -11 -9 -11 -20
0 -11 -4 -20 -10 -20 -5 0 -10 4 -10 9 0 5 -22 0 -49 -12 -28 -11 -48 -24 -45
-29 3 -5 8 -7 12 -4 4 2 16 0 27 -5 14 -5 7 -8 -28 -8 -27 -1 -46 -5 -43 -10
3 -4 -34 -11 -82 -16 -48 -4 -98 -8 -112 -10 -14 -2 -339 -4 -722 -4 l-698 -1
0 -39 c0 -21 6 -43 13 -48 6 -5 77 -10 157 -11 366 -4 595 -23 698 -58 23 -7
49 -14 56 -14 7 0 23 -9 36 -20 13 -11 29 -20 37 -20 8 0 25 -11 39 -25 l25
-25 -35 2 c-19 2 -32 6 -29 11 8 14 -14 7 -35 -12 -12 -10 -19 -21 -15 -24 14
-15 -29 -18 -46 -3 -20 19 -31 20 -31 5 0 -5 4 -8 9 -5 5 3 14 -1 21 -9 7 -8
18 -15 25 -15 6 0 20 -9 30 -20 10 -11 23 -17 29 -13 6 3 8 3 5 -1 -4 -4 8
-33 27 -63 19 -31 34 -62 34 -68 0 -6 -14 -30 -31 -53 -17 -23 -27 -47 -23
-53 4 -8 3 -9 -4 -5 -14 8 -36 -30 -26 -46 4 -6 3 -8 -2 -5 -5 3 -25 -19 -44
-49 -19 -30 -42 -54 -51 -54 -18 0 -202 116 -207 130 -2 5 15 37 39 70 23 33
39 63 36 67 -4 3 -11 -5 -16 -19 -5 -13 -16 -30 -25 -37 -9 -8 -24 -29 -33
-48 -15 -33 -15 -35 7 -58 13 -13 27 -22 31 -19 5 3 6 -2 3 -10 -3 -8 -13 -17
-22 -19 -10 -3 -1 -4 19 -2 30 3 39 -1 49 -20 11 -20 16 -22 34 -14 21 10 21
10 1 -6 -16 -13 -22 -13 -30 -3 -5 7 -23 12 -40 11 -29 -2 -29 -2 -5 7 21 8
19 9 -10 4 -19 -4 -55 -10 -80 -14 -39 -6 -35 -7 36 -9 l82 -1 61 -126 c34
-70 59 -129 56 -132 -3 -3 -21 2 -40 11 -46 22 -50 21 -62 -6 -6 -13 -38 -66
-72 -117 -34 -52 -61 -101 -61 -110 0 -9 -6 -25 -14 -35 -12 -17 -15 -15 -41
28 -15 26 -32 47 -38 47 -6 0 -7 3 -4 6 3 4 2 15 -4 26 -9 16 -13 17 -27 6
-15 -11 -15 -11 -4 3 10 14 8 23 -11 58 -13 22 -27 38 -30 34 -4 -3 -4 7 -1
24 4 20 2 33 -7 38 -8 6 -10 4 -4 -5 5 -9 4 -11 -3 -6 -16 9 -15 -7 0 -22 9
-9 9 -12 0 -12 -9 0 -10 -5 -2 -19 12 -24 -5 -40 -23 -22 -9 9 -7 10 7 5 15
-6 17 -4 10 7 -14 23 -13 68 2 80 8 7 17 9 20 6 7 -6 35 31 78 105 l26 44 -39
22 c-45 25 -58 28 -42 8 10 -11 8 -15 -6 -19 -17 -4 -17 -5 0 -6 12 -1 16 -6
11 -13 -4 -7 2 -5 13 5 17 15 22 15 32 4 8 -11 6 -18 -9 -32 -11 -10 -17 -21
-14 -26 2 -4 -9 -20 -25 -35 -17 -15 -28 -31 -25 -35 8 -14 -13 -10 -29 5 -12
12 -13 7 -12 -33 1 -35 -4 -50 -19 -64 -12 -10 -15 -16 -9 -12 8 4 11 1 7 -9
-3 -9 -11 -14 -17 -13 -6 1 -11 -3 -12 -10 0 -24 -44 -53 -80 -53 -19 0 -35
-4 -35 -10 0 -5 -15 -10 -34 -10 -24 0 -36 5 -39 18 -3 9 -5 1 -6 -18 -1 -26
-4 -31 -11 -20 -5 8 -7 26 -5 40 3 14 2 19 -1 11 -5 -10 -10 -6 -20 15 -12 29
-12 29 -13 -18 -1 -27 2 -48 7 -48 4 0 8 -46 9 -103 4 -147 33 -437 48 -473
20 -48 73 -103 129 -132 l51 -27 705 0 c673 0 707 1 740 19 61 33 100 68 125
111 26 44 41 148 65 465 12 157 59 641 100 1045 30 290 22 262 86 267 79 7 88
20 93 129 2 70 -1 95 -13 114 -23 35 -50 47 -67 30z m13 -17 c-7 -7 -12 -8
-12 -2 0 6 3 14 7 17 3 4 9 5 12 2 2 -3 -1 -11 -7 -17z m-946 -550 c17 -12 54
-57 80 -99 l49 -77 27 14 c30 16 61 19 56 5 -1 -4 -23 -53 -47 -107 -24 -54
-47 -109 -52 -121 -6 -18 -17 -23 -41 -23 -46 0 -240 29 -247 36 -3 3 5 14 18
23 70 46 70 36 0 153 -35 59 -66 105 -70 102 -4 -2 -11 1 -15 7 -5 8 -3 9 6 4
8 -5 11 -3 8 6 -3 8 -12 13 -19 11 -8 -2 -11 0 -7 4 11 10 -12 35 -26 27 -6
-3 -8 -3 -4 2 4 4 0 14 -10 21 -21 16 -8 22 58 27 142 11 203 7 236 -15z m263
-410 c149 -236 160 -264 121 -318 -27 -38 -96 -70 -151 -70 -43 0 -45 1 -82
60 -20 33 -37 61 -37 63 0 2 -20 35 -45 73 -25 37 -45 73 -45 79 0 8 205 134
220 135 3 0 12 -10 19 -22z m-723 -74 c2 -12 -1 -13 -12 -3 -7 6 -11 16 -8 21
7 11 17 3 20 -18z m468 -265 c3 -17 6 -43 6 -56 l0 -25 147 7 c86 5 161 13
180 21 29 13 33 12 33 -2 0 -16 -111 -217 -137 -245 -22 -26 -97 -42 -163 -36
l-59 5 -3 -41 c-2 -22 -8 -42 -15 -44 -10 -4 -173 187 -173 202 0 10 164 245
171 245 3 0 9 -14 13 -31z m-236 -206 l-3 -128 -150 -3 c-97 -2 -159 2 -178 9
-41 17 -61 62 -52 118 3 25 7 56 8 68 1 12 4 20 6 18 2 -3 12 7 23 20 19 25
21 25 184 25 l165 0 -3 -127z"/>
<path d="M1452 2575 c0 -16 2 -22 5 -12 2 9 2 23 0 30 -3 6 -5 -1 -5 -18z"/>
<path d="M2293 2396 c-13 -6 -23 -14 -23 -19 0 -4 -5 -5 -12 -1 -7 4 -8 3 -4
-4 4 -7 3 -12 -3 -12 -5 0 -13 -9 -16 -20 -4 -11 -11 -17 -17 -14 -7 4 -8 2
-4 -4 4 -7 2 -12 -3 -12 -6 0 -10 -3 -9 -7 1 -5 -3 -19 -10 -33 -16 -31 -4
-16 46 55 18 26 46 52 63 58 16 6 29 15 29 19 0 10 -9 9 -37 -6z"/>
<path d="M1471 2364 c0 -11 3 -14 6 -6 3 7 2 16 -1 19 -3 4 -6 -2 -5 -13z"/>
<path d="M1481 2264 c0 -11 3 -14 6 -6 3 7 2 16 -1 19 -3 4 -6 -2 -5 -13z"/>
<path d="M1492 2160 c0 -14 2 -19 5 -12 2 6 2 18 0 25 -3 6 -5 1 -5 -13z"/>
<path d="M1502 2065 c0 -16 2 -22 5 -12 2 9 2 23 0 30 -3 6 -5 -1 -5 -18z"/>
<path d="M1512 1970 c0 -19 2 -27 5 -17 2 9 2 25 0 35 -3 9 -5 1 -5 -18z"/>
<path d="M1928 1973 c6 -2 18 -2 25 0 6 3 1 5 -13 5 -14 0 -19 -2 -12 -5z"/>
<path d="M1522 1870 c0 -19 2 -27 5 -17 2 9 2 25 0 35 -3 9 -5 1 -5 -18z"/>
<path d="M1532 1770 c0 -19 2 -27 5 -17 2 9 2 25 0 35 -3 9 -5 1 -5 -18z"/>
<path d="M1543 1675 c0 -22 2 -30 4 -17 2 12 2 30 0 40 -3 9 -5 -1 -4 -23z"/>
</g>
</svg>
